<?xml version="1.0" encoding="utf-8"?>
<!-- Generator: Adobe Illustrator 27.7.0, SVG Export Plug-In . SVG Version: 6.00 Build 0)  -->
<svg version="1.1" xmlns="http://www.w3.org/2000/svg" xmlns:xlink="http://www.w3.org/1999/xlink" x="0px" y="0px"
	 viewBox="0 0 200 200" style="enable-background:new 0 0 200 200;" xml:space="preserve">
<style type="text/css">
	.st0{fill:url(#SVGID_1_);}
	.st1{fill:#FFFFFF;stroke:#000000;stroke-miterlimit:10;}
</style>
<g id="Layer_1">
	<linearGradient id="SVGID_1_" gradientUnits="userSpaceOnUse" x1="99.7486" y1="9.8301" x2="99.7486" y2="162.521">
		<stop  offset="0" style="stop-color:#F9EA30"/>
		<stop  offset="0.4365" style="stop-color:#FCAC13"/>
		<stop  offset="1" style="stop-color:#FC7010"/>
	</linearGradient>
	<path class="st0" d="M99.75,9.83L33.63,48v76.35l66.12,38.17l66.12-38.17V48L99.75,9.83z"/>
	<path d="M169.61,123.24v-77.6L99.87,5.38L30.13,45.65v77.6c-0.35,2.19-0.14,4.25,1.48,5.86c2.64,2.64,5.32,4.04,5.53,7.91
		c0.1,1.77-1.21,3.93-1.02,5.69c0.19,1.76,0.78,4.41,2.56,4.42c2.21,0.02,1.58-3.92,0.65-5.92s-1.02-4.86,0.34-6.6
		c0.84-1.07,2.2-1.25,3.54-0.89l2.74,1.58c0.06,0.06,0.12,0.11,0.17,0.17c1.68,1.82,2.7,4.27,4.76,5.64c2.27,1.5,5.15,1.3,7.89,1.6
		l11.55,6.67c2.04,1.9,4.1,3.81,6.46,5.18c2.47,1.43,5.22,2.23,7.94,3.13l12.52,7.23c1.08,1.63,1.84,3.46,2.21,5.6
		c0.73,4.27-0.13,8.69-1.7,12.73c-0.73,1.87-1.63,3.9-1.03,5.82c0.81,2.59,4.64,3.58,6.6,1.7c1.37-1.32,1.63-3.45,1.27-5.32
		c-0.36-1.87-1.24-3.59-1.85-5.38c-1.69-4.94-1.32-10.37,0.2-15.39l12.09-6.98c2.72-0.9,5.47-1.7,7.94-3.13
		c2.36-1.37,4.42-3.29,6.46-5.18l11.55-6.67c2.74-0.3,5.62-0.1,7.89-1.6c2.06-1.36,3.08-3.82,4.76-5.64
		c0.05-0.06,0.11-0.11,0.17-0.17l2.74-1.58c1.33-0.36,2.7-0.18,3.54,0.89c1.36,1.74,1.28,4.6,0.34,6.6c-0.93,2-1.56,5.94,0.65,5.92
		c1.78-0.02,2.36-2.66,2.56-4.42c0.19-1.76-1.11-3.92-1.02-5.69c0.21-3.87,2.88-5.27,5.53-7.91
		C169.75,127.49,169.96,125.43,169.61,123.24z M99.87,157.19l-61.72-35.64V50.27l61.72-35.64l61.72,35.64v71.27L99.87,157.19z"/>
</g>
<g id="Layer_3">
	<g>
		<path class="st1" d="M63.3,58.16c3.23-0.81,15.33-3.36,28.78-3.77s35.5,1.08,44.24,3.77c0,0,6.05,11.7,7.93,23.67
			c1.88,11.97,3.63,29.85-4.84,31.73s-7.66,0.81-9.68-4.84s-3.23-10.62-4.44-11.83c-1.21-1.21-4.03-4.57-7.8-3.9
			c-3.77,0.67-12.64,0.4-16,0.4c-3.36,0-15.06,0.27-17.48,0c-2.42-0.27-5.65-0.94-7.8,1.48c-2.15,2.42-8.47,18.65-9.41,19.54
			c-0.94,0.9-7.53-0.05-9.41-2.06c-1.88-2.02-6.45-13.77-2.42-29.55S63.3,58.16,63.3,58.16z"/>
		<circle class="st1" cx="84.68" cy="83.98" r="5.28"/>
		<circle class="st1" cx="114.8" cy="83.98" r="5.28"/>
		<circle class="st1" cx="128.38" cy="64.21" r="3.09"/>
		<circle class="st1" cx="128.38" cy="78.06" r="3.09"/>
		<circle class="st1" cx="135.51" cy="71.07" r="3.09"/>
		<circle class="st1" cx="122.2" cy="71.07" r="3.09"/>
		<path class="st1" d="M65.07,57.74c0,0-0.91-0.93,0-1.6s3.87-2.69,6.83-2.69s4.63-0.4,5.11,0.88s0.48,1.28,0.48,1.28L65.07,57.74z"
			/>
		<path class="st1" d="M134.58,57.42c0,0,0.89-0.96-0.04-1.6c-0.93-0.65-3.94-2.58-6.9-2.5c-2.96,0.08-4.64-0.27-5.08,1.02
			s-0.44,1.29-0.44,1.29L134.58,57.42z"/>
		<path class="st1" d="M71.56,69.69c-0.2,0.18-0.78,0.23-1.11,0c-0.33-0.23-1.87-1.64-1.94-1.97c-0.08-0.33-0.38-3.2,0-3.61
			c0.38-0.4,1.16-0.88,2.57-0.81c1.41,0.08,2.19,0.35,2.37,0.76c0.18,0.4,0.25,3.43,0,3.68C73.2,68,71.56,69.69,71.56,69.69z"/>
		<path class="st1" d="M71.56,72.61c-0.2-0.18-0.78-0.23-1.11,0c-0.33,0.23-1.87,1.64-1.94,1.97c-0.08,0.33-0.38,3.2,0,3.61
			c0.38,0.4,1.16,0.88,2.57,0.81c1.41-0.08,2.19-0.35,2.37-0.76c0.18-0.4,0.25-3.43,0-3.68C73.2,74.3,71.56,72.61,71.56,72.61z"/>
		<path class="st1" d="M69.52,70.57c0.18,0.2,0.23,0.78,0,1.11c-0.23,0.33-1.64,1.87-1.97,1.94c-0.33,0.08-3.2,0.38-3.61,0
			c-0.4-0.38-0.88-1.16-0.81-2.57c0.08-1.41,0.35-2.19,0.76-2.37s3.43-0.25,3.68,0C67.83,68.93,69.52,70.57,69.52,70.57z"/>
		<path class="st1" d="M72.44,70.57c-0.18,0.2-0.23,0.78,0,1.11c0.23,0.33,1.64,1.87,1.97,1.94c0.33,0.08,3.2,0.38,3.61,0
			c0.4-0.38,0.88-1.16,0.81-2.57c-0.08-1.41-0.35-2.19-0.76-2.37s-3.43-0.25-3.68,0C74.13,68.93,72.44,70.57,72.44,70.57z"/>
	</g>
</g>
</svg>
