<?xml version="1.0" encoding="utf-8"?>
<!-- Generator: Adobe Illustrator 27.6.1, SVG Export Plug-In . SVG Version: 6.00 Build 0)  -->
<svg version="1.1" id="Layer_1" xmlns="http://www.w3.org/2000/svg" xmlns:xlink="http://www.w3.org/1999/xlink" x="0px" y="0px"
	 viewBox="0 0 200 200" style="enable-background:new 0 0 200 200;" xml:space="preserve">
<style type="text/css">
	.st0{fill:url(#SVGID_1_);}
	.st1{fill:#FFFFFF;stroke:#000000;stroke-miterlimit:10;}
</style>
<linearGradient id="SVGID_1_" gradientUnits="userSpaceOnUse" x1="99.7486" y1="9.8301" x2="99.7486" y2="162.521">
	<stop  offset="0" style="stop-color:#F9EA30"/>
	<stop  offset="0.4365" style="stop-color:#FCAC13"/>
	<stop  offset="1" style="stop-color:#FC7010"/>
</linearGradient>
<path class="st0" d="M99.75,9.83L33.63,48v76.35l66.12,38.17l66.12-38.17V48L99.75,9.83z"/>
<path d="M169.61,123.24v-77.6L99.87,5.38L30.13,45.65v77.6c-0.35,2.19-0.14,4.25,1.48,5.86c2.64,2.64,5.32,4.04,5.53,7.91
	c0.1,1.77-1.21,3.93-1.02,5.69c0.19,1.76,0.78,4.41,2.56,4.42c2.21,0.02,1.58-3.92,0.65-5.92s-1.02-4.86,0.34-6.6
	c0.84-1.07,2.2-1.25,3.54-0.89l2.74,1.58c0.06,0.06,0.12,0.11,0.17,0.17c1.68,1.82,2.7,4.27,4.76,5.64c2.27,1.5,5.15,1.3,7.89,1.6
	l11.55,6.67c2.04,1.9,4.1,3.81,6.46,5.18c2.47,1.43,5.22,2.23,7.94,3.13l12.52,7.23c1.08,1.63,1.84,3.46,2.21,5.6
	c0.73,4.27-0.13,8.69-1.7,12.73c-0.73,1.87-1.63,3.9-1.03,5.82c0.81,2.59,4.64,3.58,6.6,1.7c1.37-1.32,1.63-3.45,1.27-5.32
	c-0.36-1.87-1.24-3.59-1.85-5.38c-1.69-4.94-1.32-10.37,0.2-15.39l12.09-6.98c2.72-0.9,5.47-1.7,7.94-3.13
	c2.36-1.37,4.42-3.29,6.46-5.18l11.55-6.67c2.74-0.3,5.62-0.1,7.89-1.6c2.06-1.36,3.08-3.82,4.76-5.64
	c0.05-0.06,0.11-0.11,0.17-0.17l2.74-1.58c1.33-0.36,2.7-0.18,3.54,0.89c1.36,1.74,1.28,4.6,0.34,6.6c-0.93,2-1.56,5.94,0.65,5.92
	c1.78-0.02,2.36-2.66,2.56-4.42c0.19-1.76-1.11-3.92-1.02-5.69c0.21-3.87,2.88-5.27,5.53-7.91
	C169.75,127.49,169.96,125.43,169.61,123.24z M99.87,157.19l-61.72-35.64V50.27l61.72-35.64l61.72,35.64v71.27L99.87,157.19z"/>
<path class="st1" d="M100,45.31c-22.42,0-40.6,18.18-40.6,40.6c0,22.42,18.18,40.6,40.6,40.6s40.6-18.18,40.6-40.6
	C140.6,63.49,122.42,45.31,100,45.31z M104.25,96.88l-18.53,10.7v-21.4v-21.4l18.53,10.7l18.53,10.7L104.25,96.88z"/>
</svg>
