<?xml version="1.0" encoding="utf-8"?>
<!-- Generator: Adobe Illustrator 27.5.0, SVG Export Plug-In . SVG Version: 6.00 Build 0)  -->
<svg version="1.1" id="Layer_1" xmlns="http://www.w3.org/2000/svg" xmlns:xlink="http://www.w3.org/1999/xlink" x="0px" y="0px"
	 viewBox="0 0 364.85 500" style="enable-background:new 0 0 364.85 500;" xml:space="preserve">
<style type="text/css">
	.st0{fill:url(#SVGID_1_);}
	.st1{fill:#290D45;}
	.st2{fill:#FFFFFF;stroke:#000000;stroke-width:2;stroke-linecap:round;stroke-linejoin:round;stroke-miterlimit:10;}
	.st3{fill:none;stroke:#000000;stroke-width:1.5;stroke-linecap:round;stroke-linejoin:round;stroke-miterlimit:10;}
	.st4{fill:#180F21;}
	.st5{fill:#4F2D72;}
</style>
<linearGradient id="SVGID_1_" gradientUnits="userSpaceOnUse" x1="182.1689" y1="17.1757" x2="182.1689" y2="407.0623">
	<stop  offset="0" style="stop-color:#F8E92F"/>
	<stop  offset="0.4365" style="stop-color:#FBAD18"/>
	<stop  offset="1" style="stop-color:#F37121"/>
</linearGradient>
<path class="st0" d="M182.17,17.18L13.34,114.65v194.94l168.83,97.47l168.83-97.47V114.65L182.17,17.18z"/>
<path class="st1" d="M80.4,254.01c5.99,11.59,15.2,21.24,21.56,32.63c23.19,41.58,12.41,13.57,8.05,52.94
	c-1.75,15.83,25.46,5.91,27.11,21.75c1.65,15.84,13.33,32.49,29.25,32.1c8.1-0.2,16.83-7.61,14.22-15.28
	c-2.53-7.43-12.64-8.53-18.36-13.9c-6.58-6.18-6.1-16.93-2.75-25.32c3.35-8.38,8.98-15.8,11.51-24.47
	c3.85-13.18,11.39,44.9,5.36,32.57c-6.03-12.33-14.19-23.57-19.72-36.13c-12.81-29.1-27.35-51.32-35.59-82.03
	c-2.94-10.95-31.53-75.04-44-61.6c-8.09,8.72-8.18,32.31-7.81,43.33C69.76,225.65,73.48,240.61,80.4,254.01z"/>
<path class="st1" d="M270.46,240.72c-5.13,15.31-15.45,28.23-24.24,41.78c-8.79,13.55-16.39,29.04-14.97,45.12
	c1.53,17.3,25.22,44.39,25.22,44.39l45.27-26.6c0,0-5.33-27.51-8.71-41.18c-2.58-10.45-11.5-17.08-9.53-27.67
	c2.4-12.92,3.83-26.01,4.29-39.14c0.2-5.7,0.05-28.67-10.04-27.06C272.21,211.25,272.43,234.86,270.46,240.72z"/>
<path d="M238.86,366.08c0,13.99-16.94,30.86-53.8,30.86s-78.83-21.21-78.83-35.2c0-13.99,29.7-25.03,78.83-15.47
	C221.24,353.31,238.86,352.09,238.86,366.08z"/>
<path class="st2" d="M220.21,356.15c-24.91,13.24-61.12,14.59-72.24-4.21c4.64-14.4,2.66-30.8-5.28-43.68
	c0,0,72.55-41.94,79.96-23.95C230.06,302.3,230.76,350.54,220.21,356.15z"/>
<path class="st2" d="M131.55,72.4C98.23,94.49,82.6,136.17,80.37,176.1c-0.57,10.15-0.4,20.45,2.14,30.3
	c2.48,9.6,7.13,18.47,11.44,27.39c9.67,20.03,17.98,41.09,32.06,58.31s35.61,30.32,57.67,27.46c12.23-1.58,23.31-7.82,33.73-14.4
	c11.68-7.38,23.16-15.52,31.8-26.31c16.67-20.81,20.85-48.75,23.15-75.32c2.46-28.45,3.36-57.67-5.02-84.96
	s-27.54-52.66-54.57-61.85c-8.67-2.95-17.82-4.17-26.93-5.11c-11.02-1.15-22.38-1.89-33,1.3c-13.43,4.03-24.74,14.56-29.73,27.67"/>
<path d="M261.35,145.08c-63.88-6.26-88.12,15.64-88.12,15.64c-11.21-0.26-20.6,1.83-20.6,1.83c-38.85-15.9-82.65,3.65-82.65,5.48
	c0,0,0.26,6.78,1.83,7.04c1.56,0.26,3.39,1.83,5.48,4.52c9.13,28.51,11.73,35.1,42.76,35.63c31.03,0.52,36.5-32.07,37.54-37.8
	c1.04-5.74,4.43-6.26,9.37-6.52c4.94-0.26,4.45,2.09,6.53,5.48c16.43,29.2,14.6,30.5,50.32,28.68
	c35.72-1.83,32.85-38.59,33.37-41.71c0.52-3.13,4.69-8.86,6-11.21S264.22,145.61,261.35,145.08z M142.97,203.47
	c-7.48,7.53-25.03,7.9-39.3,6.95c-14.26-0.96-18.22-17.65-19.74-29.06c-1.51-11.41,3.43-14.77,10.08-18.43
	c6.65-3.66,28.04-3.71,39-2.92c10.96,0.79,17.65,3.55,19.01,9.31C155.03,181.96,150.45,195.93,142.97,203.47z M236.58,199.31
	c-14.6,3.65-32.85,6.52-41.98,0c-9.13-6.52-16.43-20.34-15.64-34.15c0.36-6.3,6.78-10.43,17.99-13.3
	c11.21-2.87,33.37-6.78,40.93-4.17c7.56,2.61,13.3,5.21,13.82,17.47C252.22,177.41,251.18,195.66,236.58,199.31z"/>
<path class="st3" d="M148.4,214.31c0.06,4.82-0.8,9.64-2.53,14.13c-0.73,1.91-1.62,4.08-0.68,5.89c0.35,0.68,0.93,1.21,1.5,1.72
	c5.24,4.56,11.67,7.74,18.48,9.12c1.48,0.3,3.21,0.46,4.33-0.57c0.69-0.63,0.97-1.57,1.33-2.43c2.37-5.68,8.87-8.82,15.02-8.8
	c0.76,0,1.63,0.1,2.09,0.7c0.58,0.76,0.14,1.95-0.66,2.48s-1.81,0.6-2.77,0.64"/>
<path class="st3" d="M191.03,214.01c2.28,2.91,3.61,6.56,3.73,10.26s-0.97,7.43-3.06,10.48"/>
<path class="st3" d="M112.35,182c9.74,1.66,18.91,1.83,27.96-2.15"/>
<path class="st3" d="M195.06,172.46c3.52-5.59,9.61-9.5,16.17-10.36c6.55-0.87,13.45,1.32,18.31,5.8"/>
<path class="st3" d="M199.75,174.22c9.07,0.52,18.69,0.91,26.64-3.47"/>
<path class="st3" d="M194.99,166.79c4.81-5.47,12.03-8.57,19.31-8.94s14.56,1.86,20.75,5.71"/>
<path class="st3" d="M110.01,178.72c4.9-3.33,10.54-7.53,16.45-7.94c5.91-0.41,12.12,1.39,16.33,5.56"/>
<path class="st3" d="M106.22,175.31c4.58-5.43,11.5-8.81,18.59-9.1c7.1-0.29,14.26,2.52,19.27,7.56"/>
<path class="st3" d="M122.61,181.94c3.15,1.75,7.13,0.8,10.35-0.83c0.49-0.25,0.98-0.51,1.36-0.9c0.59-0.6,0.87-1.43,1.14-2.23
	c0.19-0.57,0.37-1.14,0.44-1.73c0.11-0.98-0.13-1.99-0.66-2.81c-0.79-1.23-2.17-1.99-3.6-2.33c-1.42-0.34-2.91-0.32-4.37-0.29
	c-1.04,0.02-2.09,0.04-3.11,0.25c-2.48,0.51-5.97,1.77-5.67,4.64C118.75,178.15,120.47,180.74,122.61,181.94z"/>
<path class="st3" d="M205.22,167.25c0.08,2.6,1.1,5.51,3.51,6.49c0.94,0.38,1.98,0.43,2.99,0.46c1.63,0.06,3.27,0.12,4.87-0.19
	s3.17-1.01,4.23-2.24c1.44-1.67,1.73-4.03,1.82-6.23c0.02-0.46,0.02-0.96-0.27-1.31c-0.21-0.25-0.52-0.37-0.82-0.48
	C217.02,162.11,204.97,159.49,205.22,167.25z"/>
<path d="M130.65,176.51c0,1.46-1.13,2.65-2.53,2.65c-1.4,0-2.53-1.19-2.53-2.65c0-1.46,1.13-2.65,2.53-2.65
	C129.52,173.86,130.65,175.05,130.65,176.51z"/>
<ellipse cx="213.5" cy="168.2" rx="1.96" ry="2.59"/>
<path d="M194.44,141.73c8.38-2.23,17.08-3.29,25.75-3.12c5.81,0.11,12.14,1.01,16.16,5.2c-12.84,1.14-25.6,3.01-38.24,5.53
	c-2.54,0.51-10.06,3.56-11.92,0.7C183.41,145.75,191.76,142.45,194.44,141.73z"/>
<path d="M121.06,145.42c-9.25-0.96-19.96-1.41-26.3,5.39c-0.58,0.62-1.13,1.52-0.71,2.26c0.26,0.46,0.82,0.66,1.33,0.8
	c3.67,1,7.55,0.69,11.35,0.54c12.02-0.47,24.31,0.62,35.94,3.74C149.36,148.34,126.21,145.89,121.06,145.42z"/>
<path class="st3" d="M139.5,258.22c4.46,2.66,9.29,4.74,14.38,5.79c4.27,0.89,8.66,1.04,13.02,1.19c1.81,0.06,3.64,0.12,5.43-0.15
	c2.31-0.35,4.49-1.25,6.78-1.71c2.44-0.49,4.96-0.48,7.45-0.6c9.7-0.47,19.31-2.96,28.02-7.26"/>
<path class="st3" d="M159.1,271.21c7.07,3.72,15.82,4.08,23.16,0.94c3.48-1.49,6.65-3.71,10.26-4.86"/>
<path d="M360.55,306.77V108.63L182.47,5.82L4.39,108.63v198.13c-0.9,5.58-0.35,10.84,3.78,14.97c6.75,6.74,13.58,10.32,14.11,20.2
	c0.25,4.53-3.09,10.04-2.6,14.54c0.49,4.51,1.99,11.26,6.52,11.3c5.64,0.05,4.03-10,1.65-15.12c-2.38-5.11-2.6-12.42,0.88-16.85
	c2.15-2.73,5.62-3.19,9.03-2.27l7,4.04c0.15,0.15,0.3,0.29,0.44,0.44c4.28,4.64,6.89,10.91,12.16,14.39
	c5.79,3.83,13.16,3.31,20.15,4.08l29.5,17.03c5.22,4.84,10.46,9.74,16.5,13.24c6.3,3.66,13.33,5.71,20.27,7.99l31.97,18.46
	c2.75,4.17,4.7,8.85,5.63,14.31c1.87,10.91-0.34,22.19-4.35,32.5c-1.86,4.78-4.15,9.95-2.63,14.85c2.06,6.62,11.85,9.14,16.84,4.33
	c3.5-3.36,4.16-8.81,3.24-13.58c-0.92-4.77-3.16-9.16-4.73-13.75c-4.31-12.61-3.37-26.48,0.5-39.31l30.87-17.83
	c6.94-2.29,13.97-4.34,20.27-7.99c6.03-3.5,11.28-8.4,16.5-13.24l29.5-17.03c7-0.76,14.36-0.25,20.15-4.08
	c5.26-3.48,7.88-9.76,12.16-14.39c0.14-0.15,0.29-0.29,0.44-0.44l7-4.04c3.41-0.91,6.89-0.46,9.03,2.27
	c3.48,4.44,3.26,11.74,0.88,16.85c-2.38,5.11-3.99,15.16,1.65,15.12c4.53-0.04,6.03-6.79,6.52-11.3s-2.84-10.02-2.6-14.54
	c0.54-9.89,7.36-13.46,14.11-20.2C360.9,317.61,361.45,312.35,360.55,306.77z M182.47,393.44l-157.61-91V120.45l157.61-91l157.61,91
	v181.99L182.47,393.44z"/>
<path class="st1" d="M251.77,142.05c7.57,17.76,31.5,25.23,48.03,37.76c15.48,11.73,24.88,28.88,26.79,46.5
	c0.75,6.9,0.34,14.11-3.11,20.38c-2.88,5.22-7.68,9.46-12.64,13.36c-9.46,7.44-19.83,14.04-30.89,19.64
	c-16.83,8.53-37.2,16.75-41.94,33c-3.25,11.14,2.23,22.82,9.42,32.51c18.8,25.37,50.77,45.94,54.18,75.85
	c0.59,5.21,0.16,10.74-2.99,15.23c-5.87,8.38-18.74,10.45-30.06,11.67c-6.42,0.69-13.31,1.31-19.06-1.23
	c-5.75-2.55-9.18-9.61-4.97-13.83c3.09-3.1,8.5-3.26,12.93-4.74c10.21-3.41,14.79-14.39,12.45-23.55
	c-2.35-9.17-10-16.66-18.31-22.78c-8.31-6.12-17.58-11.34-24.93-18.3c-17.55-16.62-21.43-42.79-9.3-62.64
	c11.99-19.61,36.85-31.82,47.97-51.8c8.41-15.11,7.58-33.75-2.16-48.26c-13.23-19.71-41.13-31.65-47.91-53.62
	c-5.85-18.94,6.25-38.35,7.48-57.91c0.11-1.74,0.11-3.56-0.82-5.11c-1.04-1.73-3.06-2.84-5.09-3.71
	c-10.46-4.52-22.62-4.8-34.33-5.23c-11.71-0.43-23.96-1.24-33.87-6.59c-9.91-5.36-16.38-16.74-11.19-25.74
	c5.2-9.02,18.66-11.5,30.34-12.47c18.79-1.57,38.35-1.9,55.89,4.09c18.85,6.44,37.59,23.32,37.05,41.52
	C260.1,97.61,242.66,120.69,251.77,142.05z"/>
<path class="st1" d="M42.06,163.51c-6.42,26.78-2,56,12.06,79.67c9.87,16.63,24.53,31.25,28.13,50.25
	c5.41,28.51-15.89,58.04-7.3,85.76c4.02,12.97,14.75,23.65,27.74,27.61c6.87,2.09,14.71,2.27,20.87-1.42
	c6.16-3.69,9.82-11.95,6.75-18.45c-4.9-10.4-21.81-9.91-27.07-20.14c-3.4-6.61-0.21-14.79,4.38-20.64
	c4.59-5.85,10.61-10.68,13.97-17.32c2.57-5.07,3.39-10.86,3.44-16.54c0.16-17.33-6.8-34.62-18.93-47
	c-8.68-8.86-19.92-15.38-26.61-25.83c-7.2-11.24-8.04-25.27-8.66-38.6c-0.69-14.73-1.36-29.68,2-44.04
	c3.06-13.08,9.37-25.04,13.29-37.84c1.93-6.29,8.18-31.46-6.16-23.84c-8.95,4.75-17.94,23.78-22.93,32.37
	C50.48,138.79,45.11,150.79,42.06,163.51z"/>
<path class="st1" d="M198.01,80.21c-23.7-1.55-48.52-9.51-70.4-0.28c-19.42,8.19-31.47,28.56-35.53,49.25
	c-4.06,20.68-1.44,42.01,0.72,62.98s3.81,42.55-2.07,62.79c-2.35,8.09,18.73,19.96,11.9,24.89c-7.06,5.1-16.35,6.14-23.69,10.82
	c-12.47,7.95-14.82,24.78-11.1,39.09c3.72,14.31,13.6,26.18,24.13,36.56s22.07,19.94,30.54,32.06c8.25,11.8,11.66,26.18,12.86,40.53
	c0.52,6.23,0.31,12.62-1.6,18.57c-3.7,11.56-13.53,20.4-24.56,25.47c-11.03,5.07-23.26,6.85-35.34,8.12
	c-9.45,0.99-19.48,1.6-27.97-2.66s-14.36-15.18-9.9-23.57c5.12-9.65,19.15-9.58,29.36-5.71c5.55,2.1,10.96,4.94,16.87,5.39
	c12.67,0.95,24.09-10.29,26.17-22.82c2.09-12.53-3.5-25.36-11.87-34.92c-8.38-9.56-19.32-16.42-30.07-23.2
	c-10.75-6.78-21.64-13.76-29.83-23.48c-11.59-13.75-16.8-32.01-17.49-49.98c-0.28-7.19,0.15-14.56,2.8-21.25
	c8.16-20.56,8.6-31.68,23.13-48.36c18.53-21.26,16.32-53.07,11.92-80.92s-9.42-58.54,5.44-82.5C73.19,59.7,92.93,49.35,113.05,45.8
	c20.13-3.55,40.81-1.08,60.96,2.35c13.54,2.3,27.4,5.04,40.89,2.46c5.42-1.04,10.73-2.93,16.24-3.02
	c13.37-0.23,19.72,12.8,8.77,20.84C227.74,77.37,212.98,81.19,198.01,80.21z"/>
<path class="st1" d="M183.13,51.81c23-1.45,34.78,11.52,50.47,27.6s19.81,16.63,24.62,38.1c2.73,12.2,5.89,19.34,2.77,31.45
	c-2.4,9.32,3.6,15.48-0.74,24.14c-11.11,22.17-18.46,47.82-10.57,71.21c8.78,26.01,19.26,52.39,34.36,75.63
	c3.62,5.57,6.7,11.66,7.33,18.18c1.7,17.55,0.68,23.56-1.23,41.09c-1.45,13.27,6.1,27,18.29,33.58s8.95-9.66,4.03-19.12
	c-11.36-21.79,9.39-46.32,16.59-69.5c5.16-16.62,5.4-35.63-4.38-50.25c-7-10.46-18.25-17.53-27.86-25.91
	c-9.61-8.38-18.22-19.67-17.01-32.02c1.13-11.54,10.36-20.58,17.43-30.03c28.01-37.42,23.77-90.78-0.87-130.29
	c-8.33-13.36-18.98-25.75-32.8-34.02c-17-10.18-37.51-13.46-57.53-15.03c-19.72-1.55-40.26-1.54-58.4,5.98s-33.31,24.21-33.02,43.05
	c0.06,4.09,1.08,8.57,4.52,11.02c8.59,6.13,20.09,7.08,25.75,1.67C154.94,58.73,168.9,52.71,183.13,51.81z"/>
<ellipse transform="matrix(0.4191 -0.908 0.908 0.4191 -413.1271 326.528)" class="st4" cx="48.6" cy="486.1" rx="5.66" ry="10.95"/>
<ellipse transform="matrix(0.4191 -0.908 0.908 0.4191 -414.1188 326.6646)" class="st5" cx="48.21" cy="486.95" rx="3.07" ry="5.94"/>
<ellipse transform="matrix(0.9322 -0.362 0.362 0.9322 -123.4939 140.6198)" class="st4" cx="313.58" cy="399.92" rx="3.49" ry="6.76"/>
<ellipse transform="matrix(0.9322 -0.362 0.362 0.9322 -123.3825 140.7992)" class="st5" cx="314.11" cy="399.71" rx="1.89" ry="3.66"/>
<ellipse transform="matrix(0.9812 -0.193 0.193 0.9812 -68.5409 66.9889)" class="st4" cx="309.5" cy="385.23" rx="2.82" ry="5.46"/>
<ellipse transform="matrix(0.9812 -0.193 0.193 0.9812 -68.5151 67.075)" class="st5" cx="309.95" cy="385.14" rx="1.53" ry="2.96"/>
<ellipse transform="matrix(0.0884 -0.9961 0.9961 0.0884 -88.1303 647.1223)" class="st4" cx="309.5" cy="371.71" rx="4.61" ry="2.38"/>
<ellipse transform="matrix(0.0884 -0.9961 0.9961 0.0884 -87.8099 647.5415)" class="st5" cx="309.89" cy="371.75" rx="2.5" ry="1.29"/>
<ellipse transform="matrix(0.3658 -0.9307 0.9307 0.3658 -136.7434 519.9861)" class="st4" cx="313.19" cy="360.33" rx="4.15" ry="2.14"/>
<ellipse transform="matrix(0.3658 -0.9307 0.9307 0.3658 -136.6555 520.3724)" class="st5" cx="313.51" cy="360.46" rx="2.25" ry="1.16"/>
<ellipse transform="matrix(0.3658 -0.9307 0.9307 0.3658 -124.3176 517.855)" class="st4" cx="317.83" cy="350.15" rx="3.66" ry="1.89"/>
<ellipse transform="matrix(0.3658 -0.9307 0.9307 0.3658 -124.24 518.1964)" class="st5" cx="318.12" cy="350.26" rx="1.99" ry="1.03"/>
<ellipse transform="matrix(0.3658 -0.9307 0.9307 0.3658 -113.3897 515.9803)" class="st4" cx="321.92" cy="341.19" rx="3.24" ry="1.68"/>
<ellipse transform="matrix(0.3658 -0.9307 0.9307 0.3658 -113.321 516.2824)" class="st5" cx="322.18" cy="341.29" rx="1.76" ry="0.91"/>
<ellipse transform="matrix(0.9481 -0.3179 0.3179 0.9481 -123.8094 102.5014)" class="st4" cx="252.17" cy="430.62" rx="7.27" ry="3.76"/>
<ellipse transform="matrix(0.9481 -0.3179 0.3179 0.9481 -123.6336 102.4088)" class="st5" cx="251.98" cy="430.03" rx="3.94" ry="2.04"/>
<ellipse transform="matrix(0.7465 -0.6654 0.6654 0.7465 -212.7304 284.6607)" class="st4" cx="267.21" cy="421.5" rx="5.87" ry="3.04"/>
<ellipse transform="matrix(0.7465 -0.6654 0.6654 0.7465 -212.567 284.3459)" class="st5" cx="266.87" cy="421.13" rx="3.18" ry="1.65"/>
<ellipse transform="matrix(0.9999 -0.0158 0.0158 0.9999 -6.4106 4.3293)" class="st4" cx="270.77" cy="407.85" rx="2.55" ry="4.93"/>
<ellipse transform="matrix(0.9999 -0.0158 0.0158 0.9999 -6.4108 4.3227)" class="st5" cx="270.35" cy="407.86" rx="1.38" ry="2.67"/>
<ellipse transform="matrix(0.7996 -0.6006 0.6006 0.7996 -183.9716 238.6998)" class="st4" cx="265.64" cy="394.98" rx="2.41" ry="4.66"/>
<ellipse transform="matrix(0.7996 -0.6006 0.6006 0.7996 -184.1774 238.5576)" class="st5" cx="265.32" cy="395.22" rx="1.31" ry="2.53"/>
<ellipse transform="matrix(0.7465 -0.6654 0.6654 0.7465 -191.4796 269.1742)" class="st4" cx="257.51" cy="385.87" rx="2" ry="3.87"/>
<ellipse transform="matrix(0.7465 -0.6654 0.6654 0.7465 -191.6873 269.0664)" class="st5" cx="257.26" cy="386.09" rx="1.09" ry="2.1"/>
<ellipse transform="matrix(0.705 -0.7092 0.7092 0.705 -195.8667 288.7275)" class="st4" cx="249.16" cy="379.82" rx="1.71" ry="3.31"/>
<ellipse transform="matrix(0.705 -0.7092 0.7092 0.705 -196.0662 288.6459)" class="st5" cx="248.96" cy="380.02" rx="0.93" ry="1.79"/>
<ellipse transform="matrix(0.5689 -0.8224 0.8224 0.5689 -203.7949 360.2023)" class="st4" cx="241.66" cy="374.48" rx="1.46" ry="2.83"/>
<ellipse transform="matrix(0.5689 -0.8224 0.8224 0.5689 -204.0159 360.1751)" class="st5" cx="241.53" cy="374.68" rx="0.79" ry="1.53"/>
<ellipse transform="matrix(0.9999 -0.0159 0.0159 0.9999 -7.7562 1.2666)" class="st4" cx="75.88" cy="489.04" rx="9.77" ry="5.05"/>
<ellipse transform="matrix(0.9999 -0.0159 0.0159 0.9999 -7.7693 1.2669)" class="st5" cx="75.89" cy="489.87" rx="5.3" ry="2.74"/>
<ellipse transform="matrix(0.9682 -0.2503 0.2503 0.9682 -117.8512 40.8282)" class="st4" cx="101.59" cy="483.76" rx="9.77" ry="5.05"/>
<ellipse transform="matrix(0.9682 -0.2503 0.2503 0.9682 -118.0455 40.9056)" class="st5" cx="101.8" cy="484.56" rx="5.3" ry="2.74"/>
<ellipse transform="matrix(0.761 -0.6487 0.6487 0.761 -276.883 193.1762)" class="st4" cx="123.76" cy="472.4" rx="8.73" ry="4.51"/>
<ellipse transform="matrix(0.761 -0.6487 0.6487 0.761 -277.1339 193.6226)" class="st5" cx="124.24" cy="472.96" rx="4.73" ry="2.45"/>
<ellipse transform="matrix(0.2608 -0.9654 0.9654 0.2608 -338.1804 464.3016)" class="st4" cx="134.09" cy="452.98" rx="7.55" ry="3.91"/>
<ellipse transform="matrix(0.2608 -0.9654 0.9654 0.2608 -337.8842 465.0223)" class="st5" cx="134.71" cy="453.14" rx="4.09" ry="2.12"/>
<ellipse transform="matrix(8.625134e-03 -1 1 8.625134e-03 -263.5352 519.2611)" class="st4" cx="130.11" cy="392.54" rx="5.5" ry="2.84"/>
<ellipse transform="matrix(8.625134e-03 -1 1 8.625134e-03 -263.0768 519.7313)" class="st5" cx="130.58" cy="392.54" rx="2.98" ry="1.54"/>
<ellipse transform="matrix(0.6762 -0.7367 0.7367 0.6762 -240.3436 214.5233)" class="st4" cx="123.89" cy="380.7" rx="2.58" ry="4.98"/>
<ellipse transform="matrix(0.6762 -0.7367 0.7367 0.6762 -240.0216 214.6331)" class="st5" cx="124.17" cy="380.38" rx="1.4" ry="2.7"/>
<ellipse transform="matrix(0.4843 -0.8749 0.8749 0.4843 -269.4088 292.04)" class="st4" cx="113.02" cy="374.55" rx="2.05" ry="3.96"/>
<ellipse transform="matrix(0.4843 -0.8749 0.8749 0.4843 -269.0674 292.0307)" class="st5" cx="113.18" cy="374.25" rx="1.11" ry="2.15"/>
<ellipse transform="matrix(0.8005 -0.5993 0.5993 0.8005 -200.0074 136.2932)" class="st4" cx="104.71" cy="368.57" rx="1.81" ry="3.51"/>
<ellipse transform="matrix(0.8005 -0.5993 0.5993 0.8005 -199.8531 136.4003)" class="st5" cx="104.95" cy="368.39" rx="0.98" ry="1.9"/>
<ellipse transform="matrix(8.871553e-03 -1 1 8.871553e-03 -258.2906 457.9191)" class="st4" cx="101.85" cy="359.26" rx="2.71" ry="1.4"/>
<ellipse transform="matrix(8.871553e-03 -1 1 8.871553e-03 -258.0647 458.1511)" class="st5" cx="102.08" cy="359.26" rx="1.47" ry="0.76"/>
<ellipse transform="matrix(0.351 -0.9364 0.9364 0.351 -261.288 325.3217)" class="st4" cx="104.06" cy="351.16" rx="2.38" ry="1.23"/>
<ellipse transform="matrix(0.351 -0.9364 0.9364 0.351 -261.2315 325.5449)" class="st5" cx="104.24" cy="351.23" rx="1.29" ry="0.67"/>
<ellipse transform="matrix(0.9971 -0.0762 0.0762 0.9971 -32.6464 11.4981)" class="st4" cx="134.27" cy="433.32" rx="3.5" ry="6.77"/>
<ellipse transform="matrix(0.9971 -0.0762 0.0762 0.9971 -32.6414 11.5417)" class="st5" cx="134.84" cy="433.27" rx="1.9" ry="3.67"/>
<ellipse transform="matrix(0.9698 -0.244 0.244 0.9698 -97.3678 44.3422)" class="st4" cx="130.34" cy="415.27" rx="3.06" ry="5.91"/>
<ellipse transform="matrix(0.9698 -0.244 0.244 0.9698 -97.3232 44.4571)" class="st5" cx="130.82" cy="415.15" rx="1.66" ry="3.2"/>
<ellipse transform="matrix(0.9055 -0.4244 0.4244 0.9055 -158.2175 90.4225)" class="st4" cx="123.89" cy="400.41" rx="2.82" ry="5.46"/>
<ellipse transform="matrix(0.9055 -0.4244 0.4244 0.9055 -158.0944 90.5819)" class="st5" cx="124.31" cy="400.21" rx="1.53" ry="2.96"/>
<ellipse transform="matrix(0.8238 -0.567 0.567 0.8238 -200.1924 133.5131)" class="st4" cx="114.64" cy="388.74" rx="2.64" ry="5.11"/>
<ellipse transform="matrix(0.8238 -0.567 0.567 0.8238 -199.9901 133.6719)" class="st5" cx="115" cy="388.5" rx="1.43" ry="2.77"/>
<ellipse transform="matrix(0.7495 -0.662 0.662 0.7495 -224.3716 163.9557)" class="st4" cx="104.44" cy="378.43" rx="2.21" ry="4.29"/>
<ellipse transform="matrix(0.7495 -0.662 0.662 0.7495 -224.144 164.0755)" class="st5" cx="104.71" cy="378.19" rx="1.2" ry="2.32"/>
</svg>
