<?xml version="1.0" encoding="utf-8"?>
<!-- Generator: Adobe Illustrator 27.5.0, SVG Export Plug-In . SVG Version: 6.00 Build 0)  -->
<svg version="1.1" id="Layer_1" xmlns="http://www.w3.org/2000/svg" xmlns:xlink="http://www.w3.org/1999/xlink" x="0px" y="0px"
	 viewBox="0 0 500 500" style="enable-background:new 0 0 500 500;" xml:space="preserve">
<style type="text/css">
	.st0{fill:url(#SVGID_1_);}
	.st1{fill:#290D45;}
	.st2{fill:#180F21;}
	.st3{fill:#4F2D72;}
</style>
<linearGradient id="SVGID_1_" gradientUnits="userSpaceOnUse" x1="249.7499" y1="26.7716" x2="249.7499" y2="408.4842">
	<stop  offset="0" style="stop-color:#F8E92F"/>
	<stop  offset="0.4365" style="stop-color:#FBAD18"/>
	<stop  offset="1" style="stop-color:#F37121"/>
</linearGradient>
<path class="st0" d="M249.75,26.77L84.46,122.2v190.86l165.29,95.43l165.29-95.43V122.2L249.75,26.77z"/>
<path class="st1" d="M241.59,307.11c9.49-15.95,23.97-29.54,28.2-47.62c5.94-25.36-9.93-50.04-16.93-75.13
	c-3.61-12.95-4.86-26.55-3.69-39.93c1.1-12.46,5.07-25.88,15.53-32.76c9.93-6.53,23.02-5.4,34.51-2.34
	c14.59,3.89,34.95,19.88,30.05,29.07c-4.8,6.26-14.57,3.24-21.41,0.61c-4.18-1.61-8.16-4.27-12.65-4.27
	c-10.28,0.01-15,13.14-14.28,23.4c1.61,23,15.28,43.08,24.66,64.13c9.38,21.06,13.86,47.87-0.97,65.52
	c-7.71,9.18-19.44,14.23-27.28,23.29c-12.57,14.52-11.75,38.73,1.77,52.37c3.17,3.2,7.03,6.01,8.77,10.16
	c2.71,6.47-0.83,14.2-6.37,18.51c-5.54,4.3-12.62,5.98-19.45,7.55C214.98,410.46,227.66,330.52,241.59,307.11z"/>
<path class="st1" d="M191.88,338.49c7.19-22.24,30.63-38.96,29.92-62.33c-0.52-17.26-14.66-31.2-29.86-39.4
	c-15.2-8.2-32.3-12.7-46.81-22.08c-5.84-3.77-11.53-8.86-12.88-15.68s3.96-15.06,10.87-14.2c2.84,0.35,5.3,2.08,7.56,3.83
	c7.75,6.01,14.78,12.97,22.92,18.45c15.12,10.18,33.55,14.89,48,26c16.5,12.69,26.37,33.55,25.73,54.35
	c-0.49,15.96-6.71,31.1-10.46,46.62c-3.75,15.52-4.7,33.09,4.26,46.3c4.96,7.31,13.05,14,12.12,22.78c-0.34,3.23-2.4,6.56-5.59,7.15
	c-2.66,0.49-5.24-0.99-7.53-2.41C214.03,391.75,179.38,376.89,191.88,338.49z"/>
<path class="st1" d="M275.95,352.44c10.11-18.15,27.47-30.96,40.83-46.87c13.36-15.92,22.8-38.72,13.36-57.23
	c-3.25-6.37-8.42-11.53-13.66-16.4c-15.6-14.51-32.58-27.55-50.62-38.88c-18.87-11.85-39.48-22.33-53.01-40.03
	s-17.12-45.66-0.91-60.95c4.24-4,10.76-6.86,15.79-3.92c4.68,2.74,5.7,9.21,4.52,14.51s-3.98,10.12-5.07,15.44
	c-2.44,11.92,4.32,24.16,13.67,31.95c9.35,7.8,20.99,12.16,32.14,17.03c29.03,12.68,57.1,30.56,73.94,57.4
	c16.84,26.83,19.9,64.05,0.84,89.36c-9.11,12.1-22.82,21.37-27.35,35.82c-1.46,4.67-1.86,9.65-3.61,14.23
	c-4.83,12.66-18.46,19.26-30.91,24.67C268.54,395.94,271.94,359.63,275.95,352.44z"/>
<ellipse transform="matrix(0.7368 -0.6761 0.6761 0.7368 -104.4982 148.4303)" class="st2" cx="138.38" cy="208.42" rx="5.54" ry="10.72"/>
<ellipse transform="matrix(0.7368 -0.6761 0.6761 0.7368 -105.0901 148.1391)" class="st3" cx="137.71" cy="209.04" rx="3" ry="5.81"/>
<ellipse transform="matrix(0.5049 -0.8632 0.8632 0.5049 16.7552 228.4216)" class="st2" cx="207.51" cy="99.6" rx="10.72" ry="5.54"/>
<ellipse transform="matrix(0.5049 -0.8632 0.8632 0.5049 16.763 227.5169)" class="st3" cx="206.72" cy="99.15" rx="5.81" ry="3"/>
<ellipse transform="matrix(0.9911 -0.1328 0.1328 0.9911 -14.7146 28.1255)" class="st2" cx="203.5" cy="124.38" rx="4.92" ry="9.53"/>
<ellipse transform="matrix(0.9911 -0.1328 0.1328 0.9911 -14.7359 28.0201)" class="st3" cx="202.7" cy="124.49" rx="2.67" ry="5.17"/>
<ellipse transform="matrix(0.8773 -0.4799 0.4799 0.8773 -44.2449 118.7605)" class="st2" cx="210.16" cy="145.92" rx="3.97" ry="7.69"/>
<ellipse transform="matrix(0.8773 -0.4799 0.4799 0.8773 -44.4652 118.5244)" class="st3" cx="209.59" cy="146.23" rx="2.15" ry="4.17"/>
<ellipse transform="matrix(0.6945 -0.7195 0.7195 0.6945 -48.533 209.2797)" class="st2" cx="222.17" cy="161.79" rx="3.26" ry="6.3"/>
<ellipse transform="matrix(0.6945 -0.7195 0.7195 0.6945 -48.9228 209.1302)" class="st3" cx="221.8" cy="162.17" rx="1.76" ry="3.41"/>
<ellipse transform="matrix(0.5049 -0.8632 0.8632 0.5049 -32.6271 289.6642)" class="st2" cx="236.21" cy="173.28" rx="2.63" ry="5.09"/>
<ellipse transform="matrix(0.5049 -0.8632 0.8632 0.5049 -33.057 289.6605)" class="st3" cx="235.99" cy="173.65" rx="1.43" ry="2.76"/>
<ellipse transform="matrix(0.1496 -0.9887 0.9887 0.1496 129.4156 431.2317)" class="st2" cx="315.41" cy="140.38" rx="4.42" ry="8.56"/>
<ellipse transform="matrix(0.1496 -0.9887 0.9887 0.1496 128.614 431.7344)" class="st3" cx="315.3" cy="141.1" rx="2.4" ry="4.64"/>
<ellipse transform="matrix(0.1496 -0.9887 0.9887 0.1496 117.8252 406.2632)" class="st2" cx="295.1" cy="134.63" rx="3.54" ry="6.85"/>
<ellipse transform="matrix(0.1496 -0.9887 0.9887 0.1496 117.1836 406.6656)" class="st3" cx="295.01" cy="135.21" rx="1.92" ry="3.71"/>
<ellipse transform="matrix(0.3916 -0.9202 0.9202 0.3916 39.6581 347.623)" class="st2" cx="282.69" cy="143.82" rx="5.79" ry="2.99"/>
<ellipse transform="matrix(0.3916 -0.9202 0.9202 0.3916 39.7561 348.156)" class="st3" cx="283.14" cy="144.02" rx="3.14" ry="1.62"/>
<ellipse transform="matrix(0.9994 -0.0355 0.0355 0.9994 -5.4704 10.0764)" class="st2" cx="280.94" cy="159.04" rx="2.34" ry="4.53"/>
<ellipse transform="matrix(0.9994 -0.0355 0.0355 0.9994 -5.4696 10.09)" class="st3" cx="281.32" cy="159.03" rx="1.27" ry="2.46"/>
<ellipse transform="matrix(0.4852 -0.8744 0.8744 0.4852 -111.685 254.847)" class="st2" cx="160.59" cy="222.27" rx="4.18" ry="8.1"/>
<ellipse transform="matrix(0.4852 -0.8744 0.8744 0.4852 -112.3814 254.8648)" class="st3" cx="160.25" cy="222.87" rx="2.27" ry="4.39"/>
<ellipse transform="matrix(0.4852 -0.8744 0.8744 0.4852 -109.3174 277.6711)" class="st2" cx="181.15" cy="231.67" rx="3.46" ry="6.7"/>
<ellipse transform="matrix(0.4852 -0.8744 0.8744 0.4852 -109.8937 277.6858)" class="st3" cx="180.88" cy="232.17" rx="1.88" ry="3.63"/>
<ellipse transform="matrix(0.6006 -0.7995 0.7995 0.6006 -113.475 256.2043)" class="st2" cx="199.71" cy="241.69" rx="2.94" ry="5.69"/>
<ellipse transform="matrix(0.6006 -0.7995 0.7995 0.6006 -113.8994 256.1266)" class="st3" cx="199.42" cy="242.07" rx="1.59" ry="3.09"/>
<path d="M424.39,310.29V116.31L250.05,15.65L75.7,116.31v193.98c-0.88,5.47-0.35,10.61,3.7,14.65c6.61,6.6,13.29,10.1,13.82,19.78
	c0.24,4.43-3.03,9.82-2.54,14.24c0.48,4.41,1.95,11.02,6.39,11.06c5.52,0.05,3.95-9.79,1.62-14.8c-2.33-5-2.55-12.16,0.86-16.5
	c2.1-2.68,5.51-3.12,8.84-2.23l6.85,3.96c0.14,0.14,0.3,0.28,0.43,0.43c4.19,4.54,6.75,10.68,11.9,14.09
	c5.67,3.75,12.88,3.24,19.73,3.99l28.88,16.68c5.11,4.74,10.25,9.53,16.15,12.96c6.17,3.58,13.05,5.59,19.85,7.83l31.3,18.07
	c2.69,4.08,4.6,8.66,5.52,14.01c1.83,10.68-0.33,21.73-4.26,31.82c-1.82,4.68-4.06,9.74-2.57,14.54c2.02,6.48,11.6,8.95,16.49,4.24
	c3.42-3.29,4.07-8.63,3.17-13.29c-0.9-4.67-3.1-8.96-4.63-13.46c-4.22-12.35-3.3-25.93,0.49-38.48l30.23-17.45
	c6.8-2.24,13.68-4.25,19.85-7.83c5.9-3.43,11.04-8.22,16.15-12.96l28.88-16.68c6.85-0.75,14.06-0.24,19.73-3.99
	c5.15-3.41,7.71-9.55,11.9-14.09c0.14-0.15,0.29-0.29,0.43-0.43l6.85-3.96c3.34-0.89,6.74-0.45,8.84,2.23
	c3.41,4.34,3.19,11.5,0.86,16.5c-2.33,5-3.91,14.85,1.62,14.8c4.44-0.04,5.91-6.65,6.39-11.06c0.48-4.41-2.78-9.81-2.54-14.24
	c0.52-9.68,7.21-13.18,13.82-19.78C424.74,320.9,425.27,315.76,424.39,310.29z M250.05,395.15L95.74,306.06V127.88l154.31-89.09
	l154.31,89.09v178.18L250.05,395.15z"/>
</svg>
